<?xml version="1.0" standalone="no"?>
<!DOCTYPE svg PUBLIC "-//W3C//DTD SVG 20010904//EN"
 "http://www.w3.org/TR/2001/REC-SVG-20010904/DTD/svg10.dtd">
<svg version="1.0" xmlns="http://www.w3.org/2000/svg"
 width="1280.000000pt" height="1280.000000pt" viewBox="0 0 1280.000000 1280.000000"
 preserveAspectRatio="xMidYMid meet">
<g transform="translate(0.000000,1280.000000) scale(0.100000,-0.100000)"
fill="#000000" stroke="none">
<path d="M2146 12334 c-3 -9 -6 -37 -6 -63 0 -27 -5 -62 -11 -80 -9 -25 -8
-46 6 -99 12 -49 16 -107 16 -217 -2 -255 29 -387 184 -780 172 -439 382 -872
442 -912 14 -10 45 -37 69 -60 47 -47 59 -51 84 -28 14 13 18 7 44 -63 16 -42
38 -93 50 -112 12 -19 26 -44 32 -55 7 -11 22 -20 35 -20 22 0 32 -25 152
-380 102 -300 126 -384 118 -397 -14 -22 -14 -48 -2 -48 9 0 81 -205 81 -228
0 -5 -43 -35 -95 -67 -52 -31 -110 -74 -128 -94 -22 -24 -42 -38 -57 -37 -20
1 -25 -7 -36 -48 -7 -26 -10 -54 -8 -60 2 -6 -2 -20 -9 -30 -13 -18 -14 -18
-42 0 -21 13 -30 15 -33 6 -2 -7 -21 -12 -43 -12 -26 0 -42 -5 -45 -15 -3 -8
6 -50 21 -95 22 -67 30 -80 48 -80 20 -1 20 -3 -8 -26 -16 -13 -53 -31 -82
-40 -61 -18 -80 -36 -58 -54 9 -7 13 -21 10 -30 -4 -12 10 -29 50 -59 44 -34
54 -46 50 -64 -3 -12 -9 -40 -13 -61 -6 -33 -12 -39 -32 -40 -25 -2 -130 -64
-130 -77 0 -4 23 -24 50 -44 37 -27 54 -34 63 -27 21 18 34 0 41 -56 4 -29 18
-97 32 -150 18 -69 25 -118 23 -172 -2 -63 0 -76 14 -78 24 -5 21 -33 -4 -39
-21 -6 -21 -10 -15 -92 4 -47 9 -87 10 -89 8 -7 109 24 112 35 2 7 6 20 9 29
4 12 18 4 62 -36 84 -76 143 -101 256 -106 87 -5 95 -3 142 23 29 16 51 36 53
48 17 97 43 135 94 135 18 0 71 16 117 34 63 26 88 32 100 24 16 -10 201 -479
377 -958 58 -159 86 -248 85 -274 -1 -41 20 -76 46 -76 24 0 83 -54 83 -76 0
-26 8 -35 108 -124 48 -42 86 -70 91 -64 4 5 14 62 21 127 11 105 11 120 -3
135 -18 20 -14 78 9 124 18 35 19 32 -19 75 -58 66 -510 1183 -500 1236 4 20
-1 35 -16 51 l-22 23 113 73 c212 137 243 159 312 222 39 35 66 54 62 43 -4
-11 -15 -53 -23 -94 -17 -83 -10 -125 30 -175 23 -28 24 -28 54 -12 37 18 42
36 30 91 -11 51 -4 142 12 158 14 14 13 15 86 -95 25 -37 45 -72 45 -78 0 -5
4 -10 9 -10 11 0 28 -89 41 -215 13 -114 29 -181 72 -280 16 -38 36 -101 44
-140 8 -38 26 -104 39 -146 13 -42 29 -123 35 -180 6 -57 18 -146 26 -197 l15
-92 -29 -43 c-55 -81 -82 -191 -63 -255 14 -47 -23 -121 -105 -206 l-66 -70 5
-70 c12 -155 29 -272 42 -300 10 -20 12 -34 5 -46 -6 -10 -10 -28 -10 -40 0
-12 -10 -54 -22 -93 -17 -57 -19 -76 -10 -99 10 -29 2 -77 -19 -104 -5 -6 -13
-46 -18 -90 -5 -43 -14 -92 -20 -107 -15 -39 -14 -77 3 -77 25 0 59 99 67 195
7 105 30 179 64 215 13 14 31 42 40 63 43 104 27 -27 -20 -161 -37 -106 -48
-174 -65 -387 -19 -250 -21 -269 -41 -314 -10 -24 -19 -59 -19 -77 0 -30 5
-36 51 -59 30 -16 58 -24 70 -20 19 6 19 4 12 -47 -16 -107 -7 -405 16 -531
11 -66 21 -131 21 -145 0 -15 -16 -95 -37 -177 l-37 -151 -61 -23 c-33 -13
-78 -36 -100 -52 -22 -15 -55 -30 -73 -34 -18 -4 -36 -14 -39 -23 -4 -8 -20
-27 -36 -42 -17 -15 -31 -38 -33 -52 -1 -15 -22 -46 -48 -72 -25 -25 -45 -49
-44 -53 0 -5 -4 -21 -11 -38 -7 -16 -14 -37 -16 -45 -3 -8 -7 -24 -10 -35 -3
-11 -1 -26 4 -34 8 -12 12 -13 25 -1 24 19 27 9 11 -35 -19 -54 -19 -79 0 -71
10 3 15 -1 15 -14 0 -10 4 -21 9 -24 5 -3 11 -18 14 -33 3 -16 12 -57 21 -93
8 -36 13 -79 10 -96 -3 -17 0 -58 6 -93 6 -34 9 -70 5 -79 -3 -9 -27 -27 -53
-38 l-47 -21 45 -20 44 -20 -49 -1 c-27 -1 -53 -6 -58 -11 -14 -14 54 -71 76
-65 22 7 22 -13 1 -66 -16 -39 -31 -49 -49 -31 -6 5 -29 6 -53 2 l-43 -6 35
-34 c19 -18 32 -39 30 -46 -3 -7 -1 -16 5 -19 18 -11 -9 -57 -30 -51 -17 6
-99 -22 -99 -34 0 -3 16 -20 36 -36 43 -36 41 -52 -10 -114 -42 -50 -56 -109
-30 -128 16 -11 13 -16 -27 -55 -24 -24 -64 -70 -87 -102 l-44 -58 -41 7 c-96
18 -134 20 -176 9 -25 -6 -47 -16 -49 -22 -2 -7 -12 -12 -22 -12 -10 0 -21 -7
-24 -16 -4 -9 -13 -14 -21 -10 -9 3 -15 0 -15 -9 0 -7 -9 -17 -20 -20 -23 -7
-26 -21 -7 -29 6 -3 2 -3 -11 0 -12 3 -22 2 -21 -3 5 -22 -14 -43 -33 -37 -14
4 -18 2 -14 -5 4 -6 -3 -15 -17 -20 -30 -12 -62 -57 -44 -64 8 -4 7 -6 -3 -6
-12 -1 -16 -13 -17 -48 0 -27 5 -51 11 -55 8 -5 7 -8 -2 -8 -7 0 -10 -5 -7
-10 4 -6 11 -7 17 -4 7 4 8 2 4 -4 -4 -6 -2 -19 3 -29 5 -10 12 -26 15 -36 3
-9 14 -17 24 -17 10 0 27 -8 38 -18 33 -29 77 -57 124 -80 51 -24 242 -60 372
-69 99 -7 144 5 235 63 28 18 69 42 90 52 46 24 257 52 363 48 41 -1 99 1 128
4 28 4 54 5 57 2 8 -8 89 -8 108 0 11 6 17 5 17 -3 0 -8 11 -9 31 -5 20 4 38
1 47 -6 13 -11 14 -9 7 12 -7 24 -7 24 12 7 21 -19 53 -23 53 -7 0 6 9 10 19
10 11 0 22 6 24 13 3 7 6 5 6 -5 1 -21 21 -24 21 -4 0 8 3 23 7 33 6 16 5 16
-10 4 -9 -7 -17 -10 -17 -5 0 4 -5 3 -12 -4 -16 -16 -31 -15 -25 1 2 7 -6 18
-19 24 -17 8 -24 8 -27 0 -2 -7 -12 -3 -25 9 -15 14 -34 19 -69 19 -26 0 -51
4 -55 9 -3 5 -17 11 -30 12 -46 7 -74 11 -103 18 -128 30 -206 52 -254 71
l-56 22 1 64 c1 77 23 124 98 213 62 73 89 118 106 171 19 59 47 95 76 95 31
0 30 9 -2 35 -17 14 -27 33 -31 63 l-6 42 48 0 47 0 -20 33 c-11 17 -30 37
-41 43 -34 17 -34 20 -7 63 17 27 34 41 47 41 15 0 19 5 15 16 -3 8 1 28 9 45
14 27 20 29 70 29 30 0 55 4 55 8 0 5 -11 19 -25 32 -31 29 -24 40 26 40 43 0
47 5 23 31 -15 17 -15 23 7 76 24 60 72 119 89 108 6 -4 10 6 10 24 0 17 10
42 24 58 20 24 26 25 40 14 14 -12 16 -11 17 5 1 11 1 23 0 28 -1 5 1 27 4 48
6 33 9 37 22 27 20 -17 33 4 33 53 0 29 3 36 15 32 12 -5 15 3 15 37 0 27 8
57 20 77 13 20 18 42 15 53 -4 11 -1 26 5 34 9 11 7 23 -8 52 -12 21 -22 61
-25 89 -2 29 -17 80 -35 117 l-31 66 27 35 c99 127 144 190 179 251 59 101
224 436 263 532 19 46 37 83 40 83 4 0 13 -26 20 -58 18 -82 40 -154 55 -178
8 -11 18 -47 24 -80 6 -32 23 -103 38 -157 23 -81 31 -97 46 -93 12 3 17 -2
17 -15 0 -29 32 -39 125 -39 73 0 92 -3 117 -22 44 -31 108 -28 155 8 38 29
68 33 138 20 45 -9 70 16 79 79 4 26 11 43 16 39 4 -5 18 -40 30 -79 13 -38
57 -144 98 -235 81 -181 162 -375 162 -390 0 -6 -5 -10 -12 -10 -23 0 -107
-62 -132 -98 -14 -20 -34 -63 -45 -94 -11 -31 -36 -91 -55 -132 -37 -78 -44
-106 -25 -106 6 0 8 -9 4 -20 -6 -20 14 -50 34 -50 10 0 16 -33 13 -70 -1 -14
7 -44 55 -202 8 -26 23 -58 33 -71 22 -28 65 -142 74 -200 4 -20 21 -53 37
-72 l31 -35 -26 -31 c-31 -37 -26 -49 19 -49 19 0 36 -4 39 -9 3 -4 -8 -26
-24 -47 -37 -49 -38 -64 -2 -64 23 0 32 -7 46 -37 29 -60 57 -216 66 -368 5
-77 10 -153 12 -170 l3 -30 -135 2 c-74 1 -200 7 -280 13 -125 10 -260 14
-402 11 -51 -1 -67 -1 -107 -1 -25 0 -42 -9 -64 -32 -27 -28 -31 -29 -42 -15
-15 21 -26 22 -19 3 3 -7 -2 -16 -10 -19 -10 -4 -13 -1 -9 9 4 10 0 12 -11 8
-9 -3 -14 -10 -11 -15 3 -4 -4 -13 -15 -19 -13 -7 -20 -21 -20 -38 0 -18 3
-23 9 -14 6 11 11 10 25 -3 9 -9 16 -22 16 -28 0 -8 3 -8 11 0 9 9 8 18 -4 37
-15 22 -15 25 1 37 9 7 14 10 11 6 -9 -11 4 -56 16 -57 6 -1 20 -8 33 -16 19
-13 22 -13 22 1 0 8 7 15 15 15 10 0 15 -7 13 -18 -2 -12 4 -18 22 -20 41 -4
100 -25 100 -35 0 -5 7 -7 15 -4 8 4 17 2 20 -3 4 -6 14 -6 28 1 12 7 19 8 15
4 -7 -8 28 -40 44 -40 3 0 10 -3 14 -8 4 -4 16 -7 27 -7 11 0 28 -6 36 -14 9
-8 66 -30 126 -51 61 -20 117 -39 125 -42 8 -3 22 -7 30 -8 8 -1 49 -12 90
-24 41 -11 134 -34 205 -51 72 -17 139 -35 150 -40 27 -12 259 -55 440 -81
112 -16 212 -23 392 -25 241 -3 242 -3 270 20 15 13 45 29 65 35 20 7 51 28
68 47 27 31 30 42 30 98 0 69 -18 132 -50 174 -11 15 -40 54 -65 87 -50 69
-116 122 -206 167 -35 17 -80 44 -99 60 -19 15 -38 28 -43 28 -5 0 -29 14 -54
31 -29 20 -57 32 -77 31 -35 -1 -56 13 -56 38 0 20 -38 64 -62 73 -14 5 -58
74 -58 92 0 3 8 5 18 5 10 0 34 16 53 36 l34 37 -45 -7 c-25 -4 -49 -11 -55
-17 -14 -14 -42 -11 -49 7 -8 22 -9 21 17 28 29 8 70 43 63 55 -3 5 -26 12
-51 15 -26 4 -44 12 -42 19 1 7 -6 11 -15 9 -35 -6 -17 17 22 29 22 7 40 15
40 19 0 4 -21 15 -46 25 l-46 17 31 32 c38 39 38 46 6 46 -42 0 -28 26 23 41
26 8 46 19 45 24 -1 6 -22 17 -47 25 -32 11 -46 20 -46 33 0 22 26 133 46 198
8 26 14 58 14 73 0 23 28 96 52 136 5 8 11 23 14 32 5 13 13 16 31 12 23 -6
24 -5 14 14 -15 28 -14 32 4 26 9 -4 15 0 15 9 0 8 7 17 15 21 20 7 19 29 -5
76 -11 22 -20 45 -20 51 0 7 8 5 20 -6 19 -18 20 -17 20 3 0 22 -50 94 -108
154 -20 21 -31 38 -25 38 18 0 -75 170 -116 213 -20 21 -46 40 -58 44 -22 5
-23 10 -24 107 -1 55 -4 142 -8 191 -9 126 3 222 43 366 30 110 52 209 70 320
6 34 9 37 85 63 114 40 134 71 91 142 -22 34 -50 160 -50 220 0 29 3 34 16 26
36 -20 174 46 174 83 0 7 -9 33 -20 57 -23 53 -33 120 -55 358 -19 219 -26
251 -80 388 -57 144 -69 207 -61 309 7 94 17 128 42 137 22 8 30 0 16 -17 -7
-8 -12 -60 -13 -128 -1 -121 12 -176 51 -226 11 -14 20 -37 20 -52 0 -14 13
-54 29 -88 19 -40 29 -76 29 -105 -1 -25 6 -59 15 -76 8 -18 18 -45 22 -62 6
-29 21 -47 31 -37 3 3 -6 39 -20 81 -15 42 -26 99 -26 127 0 58 -27 180 -71
317 -31 98 -35 152 -18 217 6 22 13 56 15 75 4 31 19 90 44 173 8 24 2 35 -41
87 -27 33 -58 64 -68 70 -11 5 -24 30 -31 59 -6 27 -18 58 -25 68 -8 10 -15
25 -15 33 0 24 -59 90 -81 90 -16 0 -19 7 -19 55 0 118 -67 243 -177 328 -49
38 -53 46 -68 109 -8 37 -15 82 -15 101 0 48 26 129 65 200 44 81 93 240 106
341 6 44 23 115 39 156 15 41 33 99 40 128 6 28 15 52 19 52 4 0 35 -20 69
-45 34 -25 105 -68 156 -96 84 -45 169 -83 546 -245 l105 -45 0 -93 c0 -89 2
-96 42 -178 79 -158 140 -236 283 -360 182 -157 350 -324 350 -348 0 -12 -6
-48 -14 -79 -8 -31 -20 -92 -26 -135 -5 -44 -24 -139 -41 -210 -25 -107 -30
-142 -24 -191 4 -33 10 -110 14 -171 6 -111 7 -112 52 -180 24 -38 53 -88 63
-112 32 -71 82 -67 114 8 15 35 15 35 23 10 4 -14 7 -42 8 -63 1 -28 9 -46 30
-68 36 -35 73 -38 105 -6 29 29 41 122 37 290 -3 112 -2 117 17 117 12 0 23
-4 26 -8 3 -5 12 -80 21 -167 16 -149 16 -205 0 -267 -9 -33 23 -68 63 -68 35
0 100 44 107 73 6 21 12 23 60 23 70 -1 104 23 126 90 14 41 22 50 49 57 26 7
36 19 62 75 30 65 31 71 29 192 -2 139 -13 196 -70 374 -165 515 -163 508
-157 556 4 30 0 65 -10 99 -12 42 -13 55 -3 61 7 5 18 6 24 4 10 -4 85 75 85
89 0 2 -24 7 -52 10 -39 4 -58 1 -70 -11 -16 -14 -18 -13 -18 4 0 10 -9 38
-20 62 -19 42 -17 47 19 42 16 -2 82 60 76 70 -3 4 -28 11 -57 14 -82 10 -89
19 -49 60 l33 34 -60 31 c-45 23 -69 29 -91 25 -27 -6 -31 -3 -37 22 -6 24 -1
33 41 70 l48 42 -57 37 c-43 29 -59 36 -68 27 -18 -18 -26 -15 -43 19 -16 29
-15 31 5 36 18 5 70 86 70 109 0 3 -26 3 -58 -1 l-58 -6 -22 70 c-23 72 -22
97 5 87 10 -4 21 10 39 49 13 31 24 58 24 60 0 3 -27 5 -60 5 -42 0 -61 -4
-67 -15 -7 -11 -20 1 -58 53 -28 37 -51 70 -53 73 -2 4 10 11 26 17 24 8 31
19 41 57 7 26 10 50 7 53 -3 2 -32 -1 -65 -8 -44 -9 -61 -17 -64 -32 -4 -14
-12 -19 -28 -16 -18 2 -26 12 -32 40 -8 32 -12 37 -31 32 -20 -5 -22 -2 -18
30 5 41 -5 45 -48 19 -25 -14 -34 -15 -69 -3 -22 7 -54 10 -71 7 -28 -6 -32
-4 -42 26 -25 70 -109 226 -156 287 -28 36 -96 110 -151 165 -107 105 -134
147 -125 195 4 17 0 40 -9 57 -9 15 -21 50 -27 77 -6 27 -22 70 -35 97 -14 27
-25 53 -25 59 0 11 -65 125 -96 168 -9 13 -51 46 -94 73 -87 55 -101 75 -71
99 20 14 51 87 51 117 0 16 -8 14 -98 -19 -37 -14 -56 -27 -62 -44 -5 -13 -13
-24 -17 -24 -5 1 -32 23 -61 50 l-54 48 4 68 c2 55 0 69 -12 71 -93 13 -87 8
-95 73 -4 38 -12 60 -20 60 -23 0 -106 -41 -112 -56 -8 -21 -29 -1 -36 34 -3
15 -10 39 -16 54 -10 27 -11 27 -48 14 -64 -22 -80 -8 -88 80 -4 41 -11 76
-16 79 -16 11 -99 -58 -96 -80 1 -14 -4 -20 -18 -20 -17 0 -20 7 -21 55 -1 30
-7 68 -13 84 -13 32 -10 33 -83 -33 l-28 -25 -11 32 c-12 35 -24 39 -52 18
-14 -11 -24 -11 -47 -3 -26 10 -33 8 -69 -21 -54 -43 -88 -42 -159 7 -31 21
-93 58 -137 82 -44 24 -102 59 -128 77 l-48 35 35 24 c54 36 68 72 77 204 5
76 15 135 28 170 25 65 25 69 6 69 -25 0 -73 -28 -132 -76 -35 -29 -63 -44
-77 -42 -19 3 -22 11 -28 105 -13 193 -64 319 -172 422 -141 132 -386 185
-569 122 -151 -52 -239 -126 -304 -254 -44 -88 -63 -176 -63 -299 0 -54 -2
-98 -5 -98 -3 0 -17 7 -31 16 -13 9 -27 14 -31 11 -3 -4 -18 2 -33 13 -24 17
-70 28 -70 16 0 -2 11 -23 24 -47 31 -56 46 -114 51 -197 8 -109 16 -162 27
-162 6 0 8 -10 4 -23 -3 -13 0 -32 8 -42 9 -13 10 -30 4 -68 -6 -31 -6 -52 0
-56 5 -3 8 -17 7 -30 -2 -30 -47 -49 -121 -50 -66 -1 -142 -27 -179 -61 -17
-15 -80 -46 -145 -70 -63 -23 -133 -52 -155 -63 -81 -40 -225 -128 -265 -162
-50 -42 -125 -87 -270 -163 -136 -71 -177 -100 -235 -164 -38 -43 -46 -57 -41
-79 4 -23 -5 -41 -58 -106 -34 -43 -82 -106 -105 -141 -24 -35 -44 -62 -46
-60 -2 2 -15 48 -29 103 l-25 100 34 28 c48 39 49 90 3 134 -18 17 -46 35 -63
40 -27 9 -31 17 -52 99 -12 49 -23 101 -23 116 0 19 -8 31 -27 41 -23 13 -47
65 -169 373 -139 350 -142 359 -123 376 17 15 18 21 8 65 -15 67 -158 437
-169 441 -6 2 -10 17 -10 33 0 74 -146 533 -295 928 -103 274 -160 407 -265
619 -77 158 -92 180 -122 195 -19 9 -40 28 -48 42 -8 15 -27 33 -42 41 -25 13
-28 12 -39 -7 -8 -17 -8 -32 1 -62 8 -28 8 -43 1 -50 -16 -16 -13 -48 13 -139
52 -184 47 -181 -62 28 -59 115 -83 152 -105 162 -16 8 -33 27 -39 43 -15 45
-69 66 -82 33z m2884 -6715 c0 -21 -4 -39 -10 -39 -5 0 -10 21 -10 46 0 27 4
43 10 39 6 -3 10 -24 10 -46z m2960 -114 c-7 -8 -16 -15 -20 -15 -11 0 1 43
14 52 16 11 20 -20 6 -37z m-2973 -47 c-3 -8 -6 -5 -6 6 -1 11 2 17 5 13 3 -3
4 -12 1 -19z m4503 -192 c6 -59 9 -110 7 -112 -8 -8 -47 126 -47 159 0 43 11
80 20 70 5 -4 13 -57 20 -117z m-4454 -53 c-9 -37 -39 -77 -61 -81 -14 -3 -16
1 -10 30 8 37 41 78 63 78 10 0 12 -7 8 -27z m2985 -90 c15 -40 4 -52 -14 -16
-20 37 -21 43 -7 43 6 0 15 -12 21 -27z m49 -161 c0 -7 -4 -10 -10 -7 -5 3
-10 16 -10 28 0 18 2 19 10 7 5 -8 10 -21 10 -28z m-2636 -4257 c3 -8 1 -15
-4 -15 -6 0 -10 7 -10 15 0 8 2 15 4 15 2 0 6 -7 10 -15z m912 -42 c-7 -7 -26
7 -26 19 0 6 6 6 15 -2 9 -7 13 -15 11 -17z"/>
<path d="M3715 820 c3 -5 8 -10 11 -10 2 0 4 5 4 10 0 6 -5 10 -11 10 -5 0 -7
-4 -4 -10z"/>
<path d="M5640 710 c0 -5 5 -10 11 -10 5 0 7 5 4 10 -3 6 -8 10 -11 10 -2 0
-4 -4 -4 -10z"/>
<path d="M5720 703 c0 -19 17 -24 30 -8 9 10 9 15 1 15 -6 0 -11 -6 -11 -12 0
-9 -4 -8 -10 2 -6 9 -10 10 -10 3z"/>
<path d="M5607 683 c-4 -3 -7 -11 -7 -17 0 -6 5 -5 12 2 6 6 9 14 7 17 -3 3
-9 2 -12 -2z"/>
<path d="M6165 670 c3 -5 1 -10 -4 -10 -6 0 -11 -5 -11 -11 0 -8 5 -8 15 1 17
14 20 30 4 30 -5 0 -7 -4 -4 -10z"/>
<path d="M6200 660 c-9 -6 -10 -10 -3 -10 6 0 15 5 18 10 8 12 4 12 -15 0z"/>
<path d="M6110 657 c0 -2 9 -14 20 -27 11 -13 20 -19 20 -15 0 5 6 2 13 -6 6
-8 11 -12 9 -10 -1 2 6 13 15 24 18 19 17 19 -15 12 -24 -5 -33 -3 -38 9 -5
14 -24 23 -24 13z"/>
<path d="M6047 639 c7 -7 15 -10 18 -7 3 3 -2 9 -12 12 -14 6 -15 5 -6 -5z"/>
</g>
</svg>
