<?xml version="1.0" standalone="no"?>
<!DOCTYPE svg PUBLIC "-//W3C//DTD SVG 20010904//EN"
 "http://www.w3.org/TR/2001/REC-SVG-20010904/DTD/svg10.dtd">
<svg version="1.0" xmlns="http://www.w3.org/2000/svg"
 width="1280.000000pt" height="1154.000000pt" viewBox="0 0 1280.000000 1154.000000"
 preserveAspectRatio="xMidYMid meet">
<g transform="translate(0.000000,1154.000000) scale(0.100000,-0.100000)"
fill="#000000" stroke="none">
<path d="M650 11015 c254 -85 1035 -323 1560 -475 495 -144 527 -155 555 -186
17 -18 40 -35 53 -39 18 -5 21 -10 12 -20 -9 -11 -5 -20 18 -40 31 -27 59 -81
49 -91 -3 -3 -37 -1 -76 6 -75 13 -104 5 -161 -41 l-25 -20 50 4 c33 3 86 -4
153 -21 l103 -25 27 20 c22 17 27 28 26 65 l0 44 50 -7 c28 -4 81 -19 118 -33
38 -14 117 -32 186 -41 144 -19 206 -36 294 -82 110 -58 319 -233 558 -470
277 -274 340 -325 505 -410 71 -36 184 -101 250 -143 121 -78 377 -211 558
-290 82 -36 110 -54 165 -109 37 -36 100 -97 141 -136 77 -74 100 -109 121
-190 7 -27 22 -58 32 -68 13 -13 17 -25 11 -40 -4 -12 -6 -61 -4 -108 2 -64
-2 -95 -13 -117 -10 -19 -16 -56 -16 -96 0 -53 -11 -97 -55 -228 -85 -253
-102 -367 -69 -453 9 -22 20 -67 25 -100 5 -33 16 -83 24 -111 13 -46 13 -58
-2 -119 -16 -65 -16 -69 6 -136 14 -44 20 -80 16 -101 -4 -23 2 -54 20 -103
35 -92 39 -229 7 -270 -42 -54 -113 -237 -127 -328 -10 -65 -20 -98 -41 -128
-38 -55 -98 -96 -161 -110 -51 -12 -57 -11 -109 14 -65 32 -93 34 -126 8 -13
-11 -37 -23 -51 -26 -15 -4 -30 -11 -33 -17 -3 -5 -17 -13 -30 -18 -36 -14
-29 -64 28 -195 29 -65 29 -70 13 -80 -10 -5 -52 -32 -94 -59 -42 -27 -142
-89 -224 -138 -81 -48 -205 -126 -275 -173 -82 -55 -137 -85 -154 -85 -16 0
-38 -10 -50 -22 -13 -13 -75 -56 -138 -97 -138 -88 -250 -179 -386 -316 -174
-174 -186 -208 -159 -441 10 -78 14 -164 11 -191 -12 -88 -6 -176 15 -219 10
-22 19 -54 19 -70 0 -16 7 -38 15 -48 8 -11 12 -29 9 -40 -3 -14 4 -32 20 -51
14 -16 28 -42 32 -58 3 -15 19 -42 35 -60 30 -33 49 -82 49 -128 0 -15 7 -32
16 -40 29 -24 52 -84 59 -154 5 -43 14 -78 24 -90 51 -59 130 -266 132 -346 0
-19 6 -52 13 -74 11 -37 10 -44 -17 -98 -19 -38 -27 -66 -23 -81 4 -15 0 -28
-10 -37 -9 -7 -29 -33 -46 -58 -50 -74 -66 -89 -93 -83 -14 2 -22 8 -19 13 3
5 -2 9 -10 9 -9 0 -16 8 -16 18 0 10 -3 13 -8 6 -8 -12 -44 -15 -37 -3 3 3 -4
9 -15 12 -10 3 -21 0 -24 -7 -2 -6 -8 -1 -11 11 -9 28 -21 29 -28 3 -5 -21
-27 -28 -27 -9 0 5 4 7 10 4 6 -3 7 1 4 10 -9 22 -16 12 -21 -31 -2 -23 1 -41
9 -47 10 -6 9 -8 -4 -4 -24 8 -30 -4 -10 -19 16 -13 15 -15 -7 -32 -16 -13
-20 -21 -12 -26 8 -5 8 -13 1 -27 -6 -11 -8 -23 -5 -28 7 -12 -50 -53 -60 -43
-5 4 -5 1 -1 -6 5 -9 12 -9 27 -2 10 6 19 9 19 6 0 -6 -190 -114 -235 -134
-16 -8 -61 -23 -99 -33 -91 -26 -123 -44 -145 -80 -10 -17 -23 -30 -27 -30
-21 2 -63 -19 -72 -36 -14 -26 -7 -103 11 -137 8 -16 28 -37 43 -47 21 -13 28
-26 28 -51 1 -29 6 -34 41 -47 26 -9 93 -15 195 -17 193 -3 300 8 500 52 54
11 77 16 113 21 20 3 37 10 37 15 0 6 7 4 17 -3 18 -15 23 -16 32 0 6 9 67 21
141 26 19 2 35 4 35 5 0 1 16 3 35 6 56 7 178 43 221 64 40 21 48 37 27 58 -9
9 -9 12 0 12 8 0 12 17 12 48 0 26 11 86 25 133 39 132 40 167 10 324 -19 99
-25 154 -20 190 4 39 1 64 -14 102 -11 28 -20 69 -19 91 0 22 -3 45 -7 51 -6
10 -17 257 -18 386 0 28 10 82 22 120 12 39 26 102 31 140 5 39 14 108 21 154
11 74 11 91 -5 151 -11 43 -15 82 -10 104 4 25 2 43 -8 59 -9 12 -25 64 -36
114 -12 51 -33 115 -47 143 -14 27 -25 52 -25 54 0 11 56 34 108 45 29 6 74
21 100 34 26 13 78 35 116 48 38 13 83 37 100 53 21 19 86 50 196 91 91 34
281 115 424 179 142 64 297 133 345 152 47 20 140 64 206 99 68 36 159 75 211
89 85 25 97 26 180 16 107 -12 242 -12 342 -1 68 8 81 7 160 -21 136 -47 222
-92 320 -167 118 -92 183 -133 450 -286 156 -89 227 -136 236 -154 22 -42 41
-55 221 -147 93 -49 206 -116 250 -149 44 -34 114 -84 155 -112 115 -77 178
-130 205 -171 14 -21 43 -52 65 -68 21 -16 58 -58 81 -94 24 -36 66 -94 94
-130 68 -86 128 -185 143 -235 6 -22 35 -67 64 -100 93 -107 183 -226 180
-239 -3 -17 136 -156 156 -156 20 0 104 -69 97 -80 -3 -4 -2 -15 1 -23 6 -18
191 -173 225 -191 13 -6 74 -76 136 -156 62 -80 141 -176 175 -214 34 -37 74
-85 89 -105 15 -20 51 -61 81 -92 30 -30 68 -82 83 -115 36 -74 86 -137 131
-163 32 -19 34 -23 34 -74 0 -30 -4 -67 -10 -83 -5 -16 -13 -59 -17 -95 l-8
-67 -70 30 c-38 17 -86 38 -105 46 -19 9 -37 17 -40 17 -3 0 -27 11 -54 23
-27 12 -51 22 -53 22 -2 0 -11 7 -19 15 -8 8 -21 12 -29 9 -8 -4 -15 -1 -15 5
0 6 -3 10 -7 9 -5 -1 -38 13 -75 30 -36 18 -70 32 -76 32 -5 0 -30 11 -56 25
-26 14 -58 27 -69 29 -12 3 -24 5 -27 6 -3 2 -8 2 -13 1 -4 0 -7 4 -7 10 0 5
-4 7 -10 4 -5 -3 -10 -1 -10 4 0 6 -11 11 -24 11 -13 0 -29 7 -36 15 -7 8 -16
12 -21 9 -5 -2 -19 2 -31 10 -13 8 -39 16 -60 19 -20 2 -47 12 -59 21 -13 9
-32 16 -42 16 -10 0 -15 5 -12 10 3 6 -4 10 -17 10 -13 0 -30 6 -36 12 -10 10
-17 10 -32 0 -14 -8 -19 -9 -18 -1 2 6 -6 13 -17 15 -11 1 -21 7 -23 13 -2 5
-9 8 -15 5 -7 -2 -22 3 -32 13 -22 20 -42 22 -64 9 -11 -7 -13 -5 -7 9 5 15 4
16 -9 5 -12 -10 -15 -9 -15 5 0 14 -3 15 -15 5 -12 -10 -15 -10 -15 3 0 10 -6
13 -20 10 -11 -3 -31 2 -45 11 -13 9 -28 16 -32 16 -4 0 -2 -4 5 -8 8 -6 2 -9
-17 -9 -22 0 -31 6 -35 21 -4 17 -13 22 -43 22 -28 -1 -37 3 -35 14 3 11 -2 9
-17 -4 -21 -19 -30 -63 -11 -51 5 3 8 11 6 18 -1 7 -1 9 1 5 3 -5 16 -8 29 -8
13 0 24 -5 24 -11 0 -5 4 -7 10 -4 7 4 7 -2 1 -18 -8 -22 -7 -24 10 -20 13 4
19 0 19 -12 0 -11 5 -15 16 -11 8 3 12 2 9 -4 -3 -6 0 -10 7 -10 8 0 20 -6 27
-12 6 -7 15 -14 19 -14 27 -6 52 -18 52 -26 0 -5 10 -6 22 -3 16 6 20 4 16 -7
-5 -11 2 -13 26 -11 26 3 28 2 11 -7 -18 -9 -17 -10 6 -7 18 3 30 -3 38 -16 7
-10 15 -16 18 -13 8 8 63 -23 63 -36 0 -9 3 -9 11 -1 8 8 17 6 33 -10 11 -12
33 -23 49 -24 15 -1 34 -9 42 -17 9 -8 21 -13 29 -10 7 3 19 -2 26 -11 7 -8
19 -15 26 -15 8 0 14 -5 14 -11 0 -5 5 -7 10 -4 6 3 10 1 10 -5 0 -6 4 -8 10
-5 5 3 18 1 27 -4 10 -6 14 -11 8 -11 -11 -1 18 -17 114 -65 34 -16 61 -33 61
-37 0 -5 7 -8 15 -8 8 0 15 -5 15 -12 0 -6 3 -8 7 -5 3 4 20 -4 37 -16 17 -13
52 -33 77 -45 26 -13 54 -31 64 -42 10 -11 23 -20 29 -20 6 0 33 -16 60 -35
27 -19 53 -35 58 -35 9 0 141 -90 175 -120 13 -11 21 -25 18 -31 -4 -5 -1 -16
5 -24 10 -11 10 -15 1 -15 -7 0 -9 -5 -6 -10 4 -6 11 -8 16 -5 5 4 9 -1 9 -9
0 -9 6 -16 14 -16 8 0 16 -7 20 -15 3 -8 15 -15 26 -15 11 0 20 -5 20 -12 0
-6 3 -9 6 -5 3 3 20 -3 38 -13 18 -9 47 -21 64 -25 18 -3 32 -11 32 -16 0 -5
11 -9 24 -9 14 0 28 -4 31 -10 3 -5 15 -10 25 -10 10 0 25 -7 33 -15 8 -8 17
-12 20 -9 3 3 23 -4 46 -15 22 -12 47 -21 55 -21 7 0 16 -7 20 -15 3 -8 13
-15 22 -15 9 0 31 -7 50 -15 76 -33 102 -43 164 -64 205 -66 420 -89 558 -60
63 13 92 38 92 79 0 16 5 30 11 30 17 0 6 176 -15 226 -12 30 -65 85 -194 206
-97 91 -210 194 -250 229 -86 75 -192 205 -223 275 -40 91 -52 109 -115 176
-34 36 -67 82 -74 102 -32 97 -102 177 -211 240 -48 27 -59 45 -79 125 -6 23
-21 52 -33 62 -12 11 -41 36 -65 56 -23 20 -67 75 -96 122 -29 47 -78 124
-108 171 -30 47 -53 90 -51 97 2 6 -3 28 -11 48 -9 21 -16 46 -16 57 0 11 -15
34 -34 52 -18 17 -41 43 -51 59 -9 15 -23 27 -29 27 -14 0 -60 86 -59 109 2
56 -65 203 -102 224 -9 4 -28 34 -45 66 -88 176 -164 299 -209 341 -64 59 -98
107 -149 210 -36 72 -51 91 -99 125 -67 48 -164 157 -197 223 -13 26 -53 79
-88 117 -35 39 -85 98 -111 132 -53 69 -139 154 -268 265 -47 40 -134 117
-193 171 -60 54 -125 106 -146 117 -21 11 -69 49 -106 85 -38 37 -118 109
-179 160 -60 52 -132 113 -158 137 l-48 43 25 46 c31 55 60 188 53 241 -6 48
-70 111 -164 164 -73 40 -134 45 -202 14 -51 -24 -77 -25 -123 -6 -41 18 -125
112 -130 146 -2 14 -9 24 -15 23 -7 -2 -15 6 -18 17 -3 11 -16 27 -28 37 -19
15 -77 120 -77 139 0 14 -133 205 -155 222 -25 20 -25 20 -5 44 10 14 22 38
26 54 4 16 17 49 30 74 13 25 30 70 38 100 8 30 25 75 39 100 14 25 51 103 82
174 31 71 76 161 99 201 31 50 45 86 49 121 8 77 28 145 57 189 38 59 50 91
50 136 0 52 22 103 54 125 40 26 88 13 211 -55 61 -34 127 -66 147 -71 25 -7
68 -40 135 -104 161 -153 399 -353 538 -451 72 -51 159 -119 195 -150 200
-176 354 -270 678 -414 108 -49 240 -110 292 -136 157 -79 407 -224 473 -274
73 -56 170 -111 247 -141 30 -12 84 -39 120 -60 43 -26 95 -46 153 -60 48 -11
113 -31 145 -44 77 -32 171 -58 182 -51 20 13 9 44 -29 78 -27 24 -66 44 -127
64 -94 30 -154 74 -154 111 0 31 54 78 112 98 29 9 78 34 108 54 58 40 120 73
157 84 15 5 36 -2 70 -22 41 -26 57 -29 115 -28 36 1 70 4 73 8 4 4 13 4 21 1
8 -3 14 1 14 10 0 8 -29 30 -65 48 -36 19 -65 37 -65 41 0 3 22 11 49 18 54
13 97 50 87 75 -7 18 -16 17 -147 -15 -65 -17 -88 -18 -172 -9 -53 5 -111 16
-129 23 -18 8 -76 17 -130 21 l-96 7 -105 -51 c-196 -96 -237 -101 -369 -46
-89 38 -148 84 -399 314 -265 243 -518 428 -744 542 -195 99 -245 134 -405
285 -69 64 -201 181 -295 259 -186 156 -268 235 -244 235 8 0 25 -7 37 -16 13
-9 26 -14 29 -11 8 8 -35 75 -78 122 -38 41 -172 248 -183 281 -3 11 -30 53
-59 94 l-53 75 -215 87 c-117 48 -244 97 -281 109 -38 11 -68 26 -68 32 0 6
25 50 55 98 73 115 104 184 116 261 5 35 19 82 31 106 19 41 20 49 8 228 -13
216 -32 304 -92 424 -35 69 -61 103 -143 186 -119 120 -229 191 -360 233 -166
54 -298 49 -432 -16 -122 -59 -243 -217 -278 -364 -30 -128 -15 -238 52 -382
20 -42 33 -80 30 -83 -3 -4 -20 5 -37 20 -17 14 -36 26 -41 26 -36 0 -3 -98
74 -221 47 -75 60 -87 113 -114 37 -19 64 -40 72 -57 13 -28 29 -158 19 -158
-24 0 -141 45 -179 69 -25 16 -90 44 -143 61 -100 32 -149 53 -175 75 -10 9
-59 15 -145 18 -142 6 -258 21 -320 42 -53 18 -115 28 -115 18 0 -4 14 -16 31
-26 18 -10 29 -20 27 -23 -10 -10 -122 27 -182 59 -33 19 -140 71 -236 117
-407 191 -405 190 -525 301 -160 147 -376 288 -625 407 -443 211 -455 218
-599 356 -40 39 -100 102 -133 140 -85 97 -141 138 -206 148 -46 7 -59 6 -87
-12 -18 -11 -39 -20 -48 -20 -8 0 -37 -22 -63 -50 -26 -27 -56 -50 -65 -50
-29 0 -152 41 -166 56 -8 8 -22 14 -32 14 -11 0 -29 25 -54 75 -42 85 -104
158 -157 185 -20 10 -75 30 -123 43 -47 14 -123 44 -167 68 -44 23 -83 40 -85
37 -7 -6 146 -123 192 -147 23 -11 67 -30 98 -42 80 -30 107 -58 144 -145 18
-42 30 -78 27 -81 -2 -2 -258 64 -568 147 -554 150 -1545 402 -1623 413 -22 4
21 -14 95 -38z"/>
<path d="M9035 1680 c-3 -5 -1 -10 4 -10 6 0 11 5 11 10 0 6 -2 10 -4 10 -3 0
-8 -4 -11 -10z"/>
<path d="M9120 1631 c0 -5 7 -12 16 -15 14 -5 15 -4 4 9 -14 17 -20 19 -20 6z"/>
<path d="M9200 1576 c0 -9 5 -16 10 -16 6 0 10 4 10 9 0 6 -4 13 -10 16 -5 3
-10 -1 -10 -9z"/>
</g>
</svg>
