<?xml version="1.0" standalone="no"?>
<!DOCTYPE svg PUBLIC "-//W3C//DTD SVG 20010904//EN"
 "http://www.w3.org/TR/2001/REC-SVG-20010904/DTD/svg10.dtd">
<svg version="1.0" xmlns="http://www.w3.org/2000/svg" 
 width="1280.000000pt" height="1269.000000pt" viewBox="0 0 1280.000000 1269.000000"
 preserveAspectRatio="xMidYMid meet">
<g transform="translate(0.000000,1269.000000) scale(0.100000,-0.100000)"
fill="#000000" stroke="none">
<path d="M7470 12684 c-823 -27 -1626 -75 -1900 -115 -48 -7 -99 -23 -142 -45
-85 -43 -158 -69 -388 -138 -283 -85 -514 -173 -720 -276 -76 -38 -142 -58
-229 -70 -95 -13 -128 -35 -179 -114 -50 -76 -136 -145 -302 -241 -196 -114
-315 -206 -579 -448 -222 -204 -506 -509 -694 -744 -96 -121 -184 -258 -248
-386 -66 -132 -134 -235 -171 -259 -13 -8 -36 -18 -52 -22 -67 -16 -141 -85
-272 -251 -43 -55 -112 -138 -152 -185 -84 -99 -105 -147 -121 -280 -14 -110
-37 -205 -84 -345 -115 -338 -308 -727 -438 -881 -76 -92 -109 -145 -109 -178
1 -42 25 -93 98 -204 91 -139 93 -174 11 -332 -57 -112 -132 -201 -188 -223
-76 -31 -115 -125 -181 -437 -35 -165 -91 -352 -127 -425 -14 -27 -45 -80 -69
-116 -50 -76 -73 -125 -121 -264 -72 -209 -126 -490 -109 -577 4 -24 16 -44
33 -55 48 -34 69 -61 82 -111 14 -57 111 -229 212 -378 76 -111 150 -187 205
-210 61 -26 247 -38 391 -26 187 16 249 39 289 108 32 53 97 -60 159 -272 38
-132 72 -315 100 -544 71 -585 147 -909 273 -1160 61 -122 163 -232 232 -249
128 -33 189 -75 234 -165 54 -107 190 -197 346 -230 307 -65 1065 -74 1283
-15 49 13 57 34 24 67 -20 20 -41 27 -93 34 -74 8 -104 28 -104 66 0 69 99
147 232 181 186 49 268 85 268 120 0 39 -26 46 -158 43 -93 -2 -137 1 -172 13
-104 35 -180 107 -165 156 4 11 22 28 41 37 74 35 118 206 97 377 -14 116 -32
136 -120 134 -100 -2 -124 21 -148 144 -35 186 -56 185 -263 -16 -144 -139
-223 -196 -255 -184 -31 12 -48 56 -62 166 -16 120 -21 135 -55 166 -24 22
-82 24 -107 3 -29 -24 -53 -91 -53 -150 0 -94 -19 -159 -55 -195 -58 -58 -130
-46 -360 59 -143 66 -178 78 -220 78 -71 0 -83 -53 -60 -262 21 -199 7 -298
-43 -298 -30 0 -89 76 -101 130 -18 82 -32 460 -25 650 7 193 -9 511 -30 602
-9 40 -24 70 -50 98 -20 22 -36 42 -36 44 0 2 -4 27 -10 55 -18 96 21 266 81
353 12 18 43 56 69 83 69 75 148 186 231 323 157 263 381 528 487 578 96 44
199 129 388 318 196 196 244 261 226 302 -30 65 -155 -3 -427 -231 -251 -211
-426 -317 -595 -364 -101 -28 -156 -56 -176 -88 -10 -15 -23 -31 -29 -35 -17
-13 -146 -9 -261 8 -123 17 -206 12 -272 -17 -23 -10 -89 -52 -145 -92 -118
-86 -215 -140 -294 -163 -80 -23 -182 -16 -256 19 -110 51 -243 204 -288 333
-27 77 -20 116 27 143 46 27 75 93 85 192 14 142 49 228 127 311 90 97 135
102 242 27 40 -28 125 -99 189 -157 245 -221 303 -239 776 -229 303 6 384 18
442 64 86 68 144 106 265 175 214 121 297 202 313 305 9 65 30 101 61 109 49
12 75 115 75 294 0 133 -19 245 -63 368 -136 386 -469 715 -814 807 -33 9
-126 22 -209 30 -82 8 -171 22 -197 30 -43 15 -98 63 -98 86 0 5 -13 9 -28 9
-21 0 -48 -17 -103 -66 -135 -121 -189 -145 -228 -103 -54 58 -42 294 30 619
88 398 264 910 378 1097 71 118 117 140 142 66 22 -68 -12 -190 -75 -260 -55
-64 -64 -87 -76 -201 -24 -227 -34 -262 -86 -325 -46 -55 -58 -125 -59 -327 0
-149 3 -196 18 -242 23 -74 41 -94 71 -75 42 28 67 93 92 240 62 363 226 916
359 1206 51 112 95 234 95 265 0 44 74 148 233 330 108 123 175 214 188 256
25 76 167 228 433 464 363 320 468 396 584 422 62 14 92 28 171 82 123 84 270
154 501 237 208 76 382 150 484 208 116 65 301 117 420 117 96 0 263 65 346
135 110 93 186 117 413 134 182 14 825 14 1052 1 344 -20 510 -45 785 -117
162 -43 184 -46 300 -47 118 0 131 2 240 38 130 43 217 54 287 37 26 -7 107
-39 178 -73 130 -61 254 -108 285 -108 52 0 289 -146 470 -290 226 -180 287
-259 460 -589 90 -174 174 -302 213 -325 48 -30 81 58 73 199 -8 147 -28 194
-111 259 -27 21 -28 26 -17 50 26 58 105 16 232 -122 46 -51 89 -92 96 -92 7
0 14 34 18 103 14 190 47 193 271 27 242 -179 481 -395 579 -523 30 -40 70
-103 88 -142 35 -74 37 -96 29 -300 -4 -86 6 -113 66 -179 65 -72 91 -134 107
-258 16 -123 41 -178 95 -212 76 -48 103 -178 121 -581 13 -305 13 -1345 0
-1505 -23 -266 -27 -277 -255 -740 -112 -228 -213 -439 -225 -469 -25 -64 -16
-81 41 -81 33 0 42 5 58 31 10 17 21 52 25 79 12 87 66 125 114 80 49 -46 5
-161 -96 -252 -69 -62 -114 -80 -181 -72 -99 11 -130 -23 -66 -72 45 -34 52
-62 27 -110 -63 -122 -393 -428 -472 -436 -54 -6 -33 63 32 109 68 47 84 106
32 119 -54 14 -129 -48 -179 -146 -27 -54 -32 -96 -20 -176 7 -47 5 -53 -16
-68 -30 -20 -68 -20 -119 0 -27 11 -42 24 -46 40 -15 58 -49 52 -195 -32 -192
-109 -435 -178 -894 -254 -429 -70 -519 -82 -617 -84 -83 -1 -88 0 -118 29
-30 29 -35 30 -142 33 -168 6 -376 -24 -558 -78 -163 -48 -198 -146 -170 -471
7 -82 10 -152 7 -155 -2 -3 -166 -16 -363 -29 -593 -41 -774 -58 -774 -75 0
-11 53 -18 256 -35 211 -18 303 -35 438 -82 283 -98 445 -232 409 -339 -21
-64 -61 -58 -175 29 -95 72 -171 107 -310 142 -213 53 -465 79 -778 78 -273
-1 -391 -14 -574 -63 -256 -68 -471 -92 -806 -88 -318 4 -340 -3 -340 -106 0
-83 50 -103 293 -115 178 -9 237 -24 237 -60 0 -36 -118 -81 -215 -81 -111 0
-175 -45 -175 -121 0 -49 27 -79 72 -79 91 0 296 71 359 124 44 37 169 73 373
106 100 17 195 32 213 35 28 5 33 2 38 -17 9 -42 64 -418 100 -694 19 -150 40
-294 45 -320 6 -27 13 -63 16 -80 9 -45 66 -156 86 -168 28 -17 40 5 48 90 6
63 12 81 30 96 42 34 81 18 105 -46 14 -36 16 -68 13 -163 -6 -136 -28 -217
-83 -303 -29 -45 -35 -64 -35 -108 0 -50 3 -58 39 -93 77 -77 133 -40 222 147
42 88 55 107 84 121 38 18 31 19 223 -32 86 -22 118 -26 200 -23 61 2 108 9
127 18 l30 16 -2 92 c-2 50 -16 219 -33 374 -57 541 -59 734 -11 844 34 76 69
86 237 69 103 -10 144 2 181 55 81 113 128 63 152 -160 18 -159 25 -659 12
-880 -15 -271 -31 -323 -119 -383 -87 -60 -141 -117 -153 -161 -22 -85 -59
-145 -143 -235 -101 -108 -146 -180 -146 -233 0 -70 59 -85 188 -47 40 12 75
19 78 16 3 -3 -24 -40 -61 -82 -75 -87 -121 -175 -135 -259 -5 -31 -18 -69
-29 -85 -93 -130 -384 -266 -526 -246 -27 4 -65 7 -84 6 -56 -2 -169 -64 -291
-161 -113 -89 -234 -160 -272 -160 -39 0 -74 28 -98 79 -15 33 -32 54 -46 57
-13 3 -58 -10 -115 -34 -112 -47 -218 -64 -534 -87 -401 -28 -794 -38 -1500
-38 -712 0 -1049 10 -1295 38 -148 17 -185 27 -185 46 0 21 158 44 420 63 324
22 378 25 870 41 1031 34 1946 87 2269 130 60 8 111 17 113 19 13 12 -333 16
-1747 20 -1627 4 -1869 10 -2063 46 -83 16 -112 18 -123 9 -10 -8 -11 -16 -3
-31 6 -10 9 -31 7 -46 -2 -21 -8 -27 -28 -27 -50 0 -70 77 -89 335 -12 162
-30 227 -75 275 -88 93 -73 322 29 445 70 84 72 120 8 120 -106 0 -300 -177
-407 -372 -79 -143 -114 -308 -87 -413 14 -55 202 -446 252 -525 54 -84 91
-115 171 -146 40 -15 134 -53 208 -85 182 -77 241 -96 375 -119 207 -35 485
-54 1195 -80 537 -20 933 -54 995 -87 93 -49 112 -55 179 -60 76 -5 127 12
150 50 18 29 -12 69 -68 89 -54 19 -66 31 -66 66 0 30 39 46 148 62 121 18
387 9 430 -14 41 -21 62 -68 62 -138 0 -60 20 -98 51 -98 11 0 46 9 78 20 104
35 272 64 581 100 441 53 622 102 895 245 213 111 544 320 670 422 69 57 114
124 122 183 3 23 0 93 -7 154 -16 139 -9 196 31 240 41 48 59 105 69 226 13
157 32 190 88 155 40 -26 68 -62 106 -135 50 -97 76 -192 87 -320 24 -269 75
-323 335 -355 213 -26 322 164 424 740 86 486 121 651 200 930 76 272 99 408
119 716 6 81 16 161 23 177 7 17 29 41 47 54 47 31 109 150 160 303 50 150 70
248 82 398 5 65 17 136 25 158 31 75 83 101 369 184 457 132 1028 345 1181
441 237 148 521 395 664 575 48 61 75 111 83 156 9 45 47 103 125 187 113 122
188 292 345 781 115 358 152 517 167 720 10 140 29 205 76 257 57 64 69 125
68 343 -2 375 -82 743 -238 1088 -14 32 -26 73 -26 93 0 29 5 38 31 52 68 38
79 51 79 98 0 61 -17 97 -103 222 -119 172 -150 250 -172 431 -15 128 -44 219
-101 312 -69 114 -398 458 -847 886 -456 435 -655 610 -732 643 -48 21 -107
86 -189 212 -85 131 -185 209 -269 212 -46 1 -67 -21 -67 -71 0 -41 31 -63
103 -74 66 -11 97 -41 104 -102 14 -125 -131 -114 -341 28 -45 30 -130 97
-191 150 -199 174 -303 209 -860 285 -359 49 -646 98 -745 126 -44 13 -116 17
-360 19 -168 1 -348 1 -400 -1z m4649 -3439 c16 -8 41 -29 55 -46 24 -28 25
-34 13 -53 -25 -37 -119 -34 -157 4 -27 27 -25 56 5 85 28 29 45 31 84 10z
m-10108 -1445 c23 -22 29 -35 24 -52 -11 -37 -45 -60 -79 -54 -41 8 -95 52
-102 83 -9 36 17 53 79 53 41 0 53 -5 78 -30z m-958 -263 c44 -19 61 -41 53
-72 -16 -64 -161 -75 -199 -14 -17 27 1 69 36 84 41 18 70 18 110 2z m11297
-181 c11 -35 3 -92 -19 -126 -14 -21 -23 -7 -28 44 -11 97 22 155 47 82z
m-10554 -75 c88 -40 125 -148 70 -200 -49 -46 -196 -14 -282 62 -52 44 -44 99
19 137 42 26 137 26 193 1z m-787 -183 c28 -29 36 -81 22 -129 -20 -66 -78
-80 -111 -26 -57 93 21 229 89 155z m10980 -1057 c38 -24 -46 -131 -268 -341
-220 -208 -278 -245 -275 -174 3 57 113 203 279 370 60 62 126 121 145 133 36
22 94 27 119 12z m-9796 -753 c23 -27 22 -38 -10 -86 -65 -95 -206 -168 -260
-134 -19 12 -31 55 -22 79 10 28 31 39 104 52 63 11 105 43 105 80 0 43 48 49
83 9z m5947 -398 c23 -23 27 -77 7 -104 -11 -15 -18 -16 -34 -8 -20 11 -52 51
-64 82 -19 45 52 69 91 30z m1497 -11 c16 -14 17 -67 2 -106 -34 -90 -135
-128 -344 -128 -110 0 -150 4 -186 18 -44 17 -69 47 -69 81 0 39 85 74 266
110 232 46 299 51 331 25z m-793 -630 c33 -26 51 -60 82 -157 15 -50 20 -80
14 -86 -5 -5 -36 -12 -68 -14 -51 -4 -62 -1 -89 22 -43 36 -58 97 -43 170 7
37 19 61 33 71 28 20 39 19 71 -6z m-159 -695 c23 -9 45 -58 45 -101 0 -45
-36 -121 -65 -140 -68 -43 -102 121 -45 215 20 32 34 38 65 26z m-408 -596
c26 -47 23 -205 -5 -319 -26 -105 -66 -199 -85 -199 -8 0 -25 25 -38 58 -21
50 -24 72 -23 177 1 101 5 131 27 194 41 118 89 152 124 89z m274 -59 c22 -42
30 -86 39 -219 15 -231 69 -445 160 -635 63 -131 77 -147 131 -154 43 -6 44
-7 57 -56 23 -94 -24 -195 -92 -195 -44 0 -86 -21 -92 -46 -3 -13 -1 -46 6
-74 13 -55 7 -95 -17 -122 -59 -66 -187 67 -187 192 1 30 4 83 9 116 7 57 6
63 -13 73 -39 21 -56 123 -72 434 -7 143 -8 263 0 396 15 273 35 356 71 290z
m277 -110 c33 -48 26 -73 -19 -77 -30 -3 -41 2 -59 25 -23 29 -22 71 2 100 14
18 44 0 76 -48z m-6215 -70 c67 -25 117 -68 117 -97 0 -30 -46 -79 -87 -93
-74 -24 -244 14 -293 66 -42 45 -29 97 35 137 39 25 145 19 228 -13z m838 1
c79 -41 105 -136 50 -183 -69 -58 -359 -63 -415 -8 -17 18 -18 24 -8 58 41
130 239 201 373 133z m3614 -65 c28 -57 33 -239 8 -309 -24 -67 -47 -80 -77
-44 -50 57 -56 280 -10 370 21 41 53 35 79 -17z m-4650 -190 c90 -45 27 -107
-115 -112 -120 -5 -213 38 -184 85 33 52 215 68 299 27z m1010 -139 c36 -24
33 -69 -11 -142 -44 -75 -87 -119 -108 -111 -8 3 -27 29 -41 56 -39 77 -85 92
-127 42 -14 -15 -30 -44 -37 -62 -61 -163 -94 -184 -291 -184 -140 0 -200 9
-200 30 0 48 352 270 567 356 86 35 106 39 160 36 35 -3 74 -12 88 -21z"/>
<path d="M8766 11729 c-41 -32 -68 -96 -73 -169 -14 -190 125 -458 416 -805
204 -243 759 -773 1105 -1053 105 -86 143 -147 161 -265 9 -56 50 -97 110
-108 27 -5 59 -18 71 -30 21 -20 22 -29 21 -157 0 -144 10 -197 43 -227 16
-15 24 -15 57 -5 76 26 193 179 193 255 0 99 -253 448 -516 710 -116 117 -210
187 -275 206 -22 7 -57 28 -79 46 -35 30 -40 40 -40 77 0 98 -118 270 -354
514 -167 173 -209 224 -231 275 -18 43 -72 112 -204 260 -138 154 -214 261
-266 373 -39 84 -72 124 -101 124 -6 0 -23 -9 -38 -21z"/>
<path d="M10693 11091 c-26 -16 -33 -28 -33 -51 0 -83 186 -95 206 -14 16 64
-103 109 -173 65z"/>
<path d="M7455 8603 c-183 -16 -409 -64 -457 -97 -68 -45 -41 -84 97 -137 117
-45 175 -77 233 -132 l54 -52 24 30 c72 91 76 95 132 111 150 44 411 -32 590
-170 67 -52 192 -179 192 -196 0 -35 -152 53 -251 146 -76 71 -182 98 -303 75
-141 -26 -126 -118 22 -136 103 -12 250 -83 314 -151 15 -16 37 -51 50 -79 23
-49 23 -56 23 -405 0 -313 2 -359 17 -392 21 -46 42 -48 67 -7 27 44 39 127
46 309 8 178 23 249 61 279 35 28 88 27 115 0 20 -20 21 -27 13 -103 -4 -44
-8 -135 -8 -201 0 -139 20 -226 84 -362 71 -153 138 -230 236 -274 79 -36 131
-86 140 -136 15 -86 105 -210 226 -314 152 -131 240 -151 653 -151 443 0 663
23 768 79 57 31 74 66 41 90 -24 18 -119 16 -228 -3 -94 -16 -129 -13 -158 13
-25 22 -23 84 3 117 29 37 52 47 126 56 35 5 74 15 87 24 31 19 53 82 61 170
8 76 15 76 40 -2 19 -60 68 -122 95 -122 28 0 59 -47 66 -100 4 -27 15 -63 25
-80 18 -28 24 -31 62 -28 41 3 42 4 41 38 -1 38 -16 71 -117 261 -108 203
-121 246 -122 424 -2 149 -7 183 -51 320 -9 28 -19 55 -23 60 -9 17 -20 -64
-20 -161 -1 -142 -24 -233 -64 -258 -46 -29 -75 38 -86 201 -11 159 -27 172
-166 138 -77 -18 -166 -19 -209 -1 -18 8 -46 30 -61 50 -40 53 -58 60 -89 35
-37 -29 -106 -151 -137 -244 -23 -68 -34 -87 -78 -126 -95 -85 -284 -178 -336
-165 -13 3 -30 21 -38 39 -26 54 -83 97 -130 97 -57 0 -112 80 -149 218 -16
59 -21 110 -22 222 -1 138 0 148 27 210 58 138 169 250 267 271 46 10 64 21
110 68 69 70 122 172 128 247 4 51 1 64 -39 142 -30 59 -64 107 -104 148 -78
78 -121 99 -206 99 -87 0 -133 -30 -194 -125 -25 -39 -49 -70 -54 -70 -4 0
-11 35 -14 79 -6 89 -19 121 -48 121 -26 0 -112 -81 -201 -192 -39 -48 -73
-88 -74 -88 -2 0 -87 43 -189 95 -292 148 -440 186 -714 183 -86 -1 -174 -3
-196 -5z"/>
<path d="M2735 8183 c-110 -29 -25 -122 253 -277 202 -113 358 -177 480 -197
62 -10 73 -9 113 8 24 11 50 32 58 46 13 24 12 29 -3 46 -9 10 -37 21 -62 25
-67 9 -120 43 -154 98 -49 80 -107 105 -272 118 -111 9 -164 30 -188 75 -9 17
-30 37 -46 45 -30 14 -143 23 -179 13z"/>
<path d="M5005 8169 c-56 -30 -115 -73 -264 -193 -72 -58 -153 -117 -181 -131
-56 -29 -98 -84 -156 -210 -93 -201 -112 -365 -42 -365 41 0 90 45 188 175 54
72 143 180 197 241 54 61 133 151 176 199 102 116 168 215 174 265 5 39 5 40
-23 40 -16 0 -47 -10 -69 -21z"/>
<path d="M6030 7683 c-408 -28 -688 -106 -884 -247 -252 -181 -380 -492 -380
-921 0 -297 68 -515 235 -748 125 -176 362 -387 514 -457 266 -125 752 -157
792 -54 17 45 -78 71 -307 84 -222 13 -316 32 -328 68 -5 17 50 38 138 51 41
6 246 16 455 21 412 11 520 23 612 65 118 54 234 225 153 225 -35 0 -80 -53
-80 -94 0 -19 -4 -37 -9 -40 -5 -3 -29 10 -55 30 -89 67 -208 90 -544 104
-326 14 -420 39 -511 135 -96 101 -102 154 -25 208 22 15 136 68 254 116 118
49 253 105 300 125 97 41 154 45 241 20 124 -37 440 -221 454 -265 12 -36 -13
-47 -133 -57 -128 -12 -177 -32 -177 -73 0 -34 50 -56 158 -68 56 -7 100 -18
120 -30 86 -53 128 -134 129 -245 0 -86 -19 -136 -81 -219 -23 -29 -41 -59
-41 -65 0 -32 83 2 135 54 125 127 315 518 315 648 0 40 -3 47 -29 61 -60 30
-92 102 -55 123 10 6 31 3 59 -7 59 -21 93 -8 123 46 67 122 68 403 2 640 -29
100 -164 457 -191 499 -43 71 -173 148 -325 193 -94 28 -279 58 -437 71 -115
9 -482 11 -597 3z"/>
<path d="M11094 7670 c-41 -16 -105 -107 -174 -245 -79 -161 -95 -220 -79
-297 25 -115 142 -343 205 -398 55 -48 81 -40 123 36 43 78 53 79 116 8 31
-35 65 -64 80 -66 60 -12 88 57 41 102 -55 51 -98 196 -141 475 -39 258 -62
336 -113 375 -27 22 -28 22 -58 10z"/>
<path d="M3370 5892 c-102 -50 -367 -356 -498 -574 -85 -143 -85 -141 -68
-378 17 -231 34 -310 68 -310 14 0 54 33 112 93 142 146 266 332 266 400 0 23
10 40 45 71 29 27 56 67 79 116 75 162 161 453 154 520 -6 61 -92 95 -158 62z"/>
<path d="M3780 5668 c-26 -20 -57 -58 -79 -98 -32 -58 -36 -74 -39 -156 -5
-115 16 -223 69 -359 71 -184 169 -324 251 -362 67 -31 164 -48 269 -48 108 0
139 14 139 63 0 14 9 59 21 99 l20 74 -30 66 c-42 88 -104 174 -231 317 -202
228 -266 315 -283 384 -16 62 -45 67 -107 20z"/>
<path d="M6670 5328 c-106 -38 19 -136 161 -126 110 8 153 74 74 112 -49 24
-184 32 -235 14z"/>
<path d="M3433 3980 c-25 -10 -43 -39 -43 -69 0 -55 93 -84 124 -39 42 60 -14
135 -81 108z"/>
<path d="M3156 3785 c-50 -77 -63 -323 -20 -396 44 -75 87 -25 105 123 12 101
1 236 -21 278 -15 27 -44 25 -64 -5z"/>
<path d="M3428 3683 c-69 -80 -34 -279 45 -259 50 12 74 145 42 223 -23 56
-58 69 -87 36z"/>
<path d="M5013 3060 c-41 -25 -101 -105 -109 -147 -14 -73 13 -134 153 -338
77 -111 89 -140 79 -179 -13 -51 -199 -172 -283 -183 -32 -4 -44 -1 -71 22
-37 31 -64 79 -81 143 -10 35 -9 53 3 97 23 75 8 142 -66 294 -50 104 -124
183 -189 203 -59 17 -270 17 -331 -1 -26 -7 -57 -24 -69 -37 l-23 -24 21 -28
c12 -16 49 -39 91 -57 140 -59 149 -81 168 -383 20 -330 48 -432 136 -489 37
-25 50 -28 122 -27 88 2 158 21 216 60 70 48 157 29 376 -85 156 -81 239 -114
266 -106 10 4 30 24 44 46 13 22 37 45 52 50 53 21 198 39 312 39 200 0 380
29 411 66 17 21 3 44 -40 66 -55 28 -69 47 -89 126 -28 106 -29 118 -52 373
-11 124 -24 238 -29 253 -18 46 -26 41 -145 -107 -83 -103 -141 -156 -155
-141 -5 5 -48 77 -96 159 -144 247 -205 320 -260 313 -33 -5 -53 -61 -59 -166
-8 -128 -23 -196 -46 -217 -45 -40 -82 25 -110 192 -26 156 -36 188 -67 213
-32 25 -40 25 -80 0z m618 -628 c139 -39 213 -106 213 -196 1 -28 -6 -64 -14
-80 -41 -82 -275 -122 -370 -65 l-33 20 5 108 c4 88 9 117 29 157 23 46 56 74
89 74 9 0 45 -8 81 -18z"/>
<path d="M7057 1109 c-228 -235 -284 -319 -216 -327 58 -7 208 152 302 320
100 180 84 181 -86 7z"/>
</g>
</svg>
